<svg xmlns="http://www.w3.org/2000/svg" xmlns:svg="http://www.w3.org/2000/svg" xmlns:xlink="http://www.w3.org/1999/xlink" id="svg208" width="370.121" height="271.351" version="1.1" viewBox="0 0 97.928 71.795"><metadata id="metadata205"/><g id="layer1" transform="translate(-51.036124,-64.10253)"><g id="g184" transform="translate(674.78338,-185.34168)" style="display:inline"><path id="path836" d="m -609.06836,317.58398 c -0.46339,0 -0.8534,0.01 -1.07617,0.0918 -0.11139,0.0409 -0.17859,0.0901 -0.22656,0.16211 -0.048,0.072 -0.084,0.18098 -0.084,0.36133 0,0.34647 0.13269,0.44725 0.31446,0.52734 0.18176,0.0801 0.41543,0.0879 0.53124,0.0879 0.65711,0 1.9724,0.15495 3.0918,0.55469 a 0.23521068,0.23521068 0 0 1 0.15625,0.2207 v 26.25782 c 0,0.5407 0.007,1.40236 -0.44726,2.18359 -0.45431,0.78123 -1.37705,1.44436 -3.08789,1.60352 a 0.23521068,0.23521068 0 0 1 -0.002,0 c -0.40519,0.0337 -0.54888,0.17686 -0.6289,0.31054 -0.08,0.13368 -0.082,0.26503 -0.082,0.30469 0,0.17674 0.039,0.28095 0.0918,0.35352 0.0528,0.0726 0.12881,0.12563 0.25196,0.16796 0.24628,0.0847 0.6577,0.0937 1.12109,0.0937 h 7.56836 c 0.46339,0 0.8534,-0.01 1.07617,-0.0918 0.11139,-0.0409 0.17859,-0.0901 0.22656,-0.16211 0.048,-0.072 0.084,-0.18099 0.084,-0.36133 0,-0.33298 -0.30786,-0.61523 -0.53711,-0.61523 a 0.23521068,0.23521068 0 0 1 -0.0195,0 c -1.93493,-0.15796 -2.9685,-0.7865 -3.48829,-1.56055 -0.51978,-0.77405 -0.51171,-1.64728 -0.51171,-2.22656 v -24.48243 a 0.23521068,0.23521068 0 0 1 0.0703,-0.16796 l 0.0781,-0.0762 a 0.23521068,0.23521068 0 0 1 0.38086,0.0781 l 11.96094,28.7832 c 0.22409,0.41081 0.40438,0.63987 0.54102,0.75391 0.13664,0.11404 0.21675,0.1289 0.33203,0.1289 0.25991,0 0.33057,-0.0497 0.43164,-0.17968 0.10106,-0.12996 0.20156,-0.37586 0.36133,-0.69532 l 12.04296,-28.79101 a 0.23521068,0.23521068 0 0 1 0.38282,-0.0762 l 0.0762,0.0762 a 0.23521068,0.23521068 0 0 1 0.0684,0.16601 v 24.48243 c 0,0.54062 0.008,1.40393 -0.45703,2.18554 -0.46479,0.78161 -1.40592,1.44262 -3.1543,1.60157 a 0.23521068,0.23521068 0 0 1 -0.002,0 c -0.40514,0.0337 -0.54887,0.17685 -0.62891,0.31054 -0.08,0.13369 -0.082,0.26514 -0.082,0.30469 0,0.17674 0.039,0.28095 0.0918,0.35352 0.0528,0.0726 0.12881,0.12563 0.25195,0.16796 0.24628,0.0847 0.6577,0.0937 1.12109,0.0937 H -567.75 c 0.46335,0 0.85339,-0.01 1.07617,-0.0918 0.1114,-0.0409 0.17858,-0.0901 0.22656,-0.16211 0.048,-0.072 0.084,-0.18099 0.084,-0.36133 0,-0.33298 -0.30787,-0.61523 -0.53711,-0.61523 a 0.23521068,0.23521068 0 0 1 -0.0195,0 c -1.93493,-0.15796 -2.9685,-0.7865 -3.48828,-1.56055 -0.51978,-0.77405 -0.51172,-1.64728 -0.51172,-2.22656 v -23.2461 c 0,-0.54071 -0.007,-1.40237 0.44726,-2.18359 0.45431,-0.78123 1.37705,-1.44437 3.08789,-1.60352 a 0.23521068,0.23521068 0 0 1 0.0215,0 c 0.22549,0 0.39714,-0.0645 0.50976,-0.16406 0.11263,-0.0995 0.18165,-0.23672 0.18164,-0.45117 0,-0.18035 -0.036,-0.2893 -0.084,-0.36133 -0.048,-0.072 -0.11518,-0.12123 -0.22656,-0.16211 -0.22277,-0.0817 -0.61278,-0.0918 -1.07617,-0.0918 h -9.5 c -0.61781,0 -0.93858,0.0168 -1.09766,0.0996 -0.15908,0.0828 -0.26964,0.26167 -0.45898,0.75391 a 0.23521068,0.23521068 0 0 1 -0.002,0.008 l -9.42187,22.39649 a 0.23521068,0.23521068 0 0 1 -0.4336,0 l -9.42187,-22.39649 a 0.23521068,0.23521068 0 0 1 -0.002,-0.008 c -0.0965,-0.25096 -0.16816,-0.43355 -0.23243,-0.55273 -0.0643,-0.11919 -0.11035,-0.16815 -0.17578,-0.20508 -0.13086,-0.0739 -0.45533,-0.0957 -1.15039,-0.0957 z m 5.07422,1.23047 a 0.23521068,0.23521068 0 0 1 0.0234,0 h 4.24804 a 0.23521068,0.23521068 0 0 1 0.2168,0.14258 l 9.49414,22.61524 c 0.19172,0.38339 0.30072,0.57414 0.4082,0.68164 0.10749,0.10749 0.23899,0.16921 0.54297,0.2832 a 0.23521068,0.23521068 0 0 1 0.13477,0.31445 l -2.24024,5.17578 a 0.23521068,0.23521068 0 0 1 -0.21679,0.14063 h -0.0762 a 0.23521068,0.23521068 0 0 1 -0.2168,-0.14453 L -602.875,321.22266 a 0.23521068,0.23521068 0 0 1 -0.004,-0.008 c -0.22039,-0.58766 -0.67457,-1.41671 -1.25781,-2 a 0.23521068,0.23521068 0 0 1 0.14258,-0.40039 z m 27.4375,0 a 0.23521068,0.23521068 0 0 1 0.002,0 h 5.25196 a 0.23521068,0.23521068 0 0 1 0.17187,0.39453 c -1.10162,1.17502 -1.0957,2.3887 -1.0957,3.23829 v 23.55468 c 0,0.8496 -0.006,2.06326 1.0957,3.23828 a 0.23521068,0.23521068 0 0 1 -0.17187,0.39454 h -6.33204 a 0.23521068,0.23521068 0 0 1 -0.17773,-0.38868 c 1.02686,-1.17348 1.02344,-2.39437 1.02344,-3.24414 v -26.95312 a 0.23521068,0.23521068 0 0 1 0.23242,-0.23438 z m 6.50391,9.63867 v 12.72071 c 7.22707,0.71464 12.90249,6.70489 13.11523,14.0664 h 12.65234 v -26.78711 z m 0,13.5879 v 3.80664 c 0,0.57606 0.0201,1.22718 0.36718,1.74414 0.35024,0.52177 1.059,1.03447 2.83789,1.17968 a 0.23521068,0.23521068 0 0 1 0.0918,0.0293 c 0.71224,0.081 1.25977,0.699 1.25977,1.44922 0,0.29968 -0.0632,0.59389 -0.22852,0.8418 -0.16695,0.25041 -0.41111,0.40836 -0.65039,0.49609 -0.45883,0.16824 -0.91791,0.14258 -1.375,0.14258 h -13.12891 c -0.45814,0 -0.93343,0.0225 -1.40234,-0.13867 -0.24155,-0.0831 -0.49214,-0.2314 -0.67187,-0.47852 -0.18022,-0.24783 -0.25586,-0.55251 -0.25586,-0.86328 0,-0.0215 -0.008,-0.39528 0.20507,-0.75 0.21946,-0.36579 0.67109,-0.6756 1.29883,-0.72852 1.56604,-0.14331 2.16187,-0.64252 2.48242,-1.18164 0.31623,-0.53183 0.33789,-1.205 0.33789,-1.74218 v -1.71094 c -3.79679,2.43846 -6.32617,6.68001 -6.32617,11.5293 0,7.57608 6.1368,13.71289 13.71289,13.71289 7.5761,0 13.71289,-6.13681 13.71289,-13.71289 0,-7.08701 -5.37402,-12.90193 -12.26757,-13.625 z m -3.03907,0.0195 c -0.97818,0.11369 -1.92582,0.3243 -2.83008,0.63281 v 3.30859 c 0,0.66996 -0.15194,1.70371 -0.69921,2.76758 h 4.27539 c -0.58042,-1.06233 -0.7461,-2.09751 -0.7461,-2.76758 z m 29.67188,1.51367 v 12.29883 a 0.23521068,0.23521068 0 0 1 -0.23438,0.23437 h -8.26172 l -3.50586,6.06836 h 22.74024 z" transform="translate(-3.137876,-58.13977)" xlink:href="#path1131" style="color:#000;font-style:normal;font-variant:normal;font-weight:400;font-stretch:normal;font-size:medium;line-height:normal;font-family:sans-serif;font-variant-ligatures:normal;font-variant-position:normal;font-variant-caps:normal;font-variant-numeric:normal;font-variant-alternates:normal;font-variant-east-asian:normal;font-feature-settings:normal;font-variation-settings:normal;text-indent:0;text-align:start;text-decoration:none;text-decoration-line:none;text-decoration-style:solid;text-decoration-color:#000;letter-spacing:normal;word-spacing:normal;text-transform:none;writing-mode:lr-tb;direction:ltr;text-orientation:mixed;dominant-baseline:auto;baseline-shift:baseline;text-anchor:start;white-space:normal;shape-padding:0;shape-margin:0;inline-size:0;clip-rule:nonzero;display:inline;overflow:visible;visibility:visible;isolation:auto;mix-blend-mode:normal;color-interpolation:sRGB;color-interpolation-filters:linearRGB;solid-color:#000;solid-opacity:1;vector-effect:none;fill:#fff;fill-opacity:1;fill-rule:nonzero;stroke:none;stroke-width:3;stroke-linecap:butt;stroke-linejoin:miter;stroke-miterlimit:4;stroke-dasharray:none;stroke-dashoffset:0;stroke-opacity:1;color-rendering:auto;image-rendering:auto;shape-rendering:auto;text-rendering:auto;enable-background:accumulate;stop-color:#000"/></g></g></svg>